<?xml version="1.0" encoding="UTF-8"?>
<svg width="1600" height="900" viewBox="0 0 1600 900" fill="none" xmlns="http://www.w3.org/2000/svg">
  <defs>
    <linearGradient id="gradBackground" x1="0" y1="0" x2="0" y2="1">
      <stop offset="0%" stop-color="#ffffff" />
      <stop offset="55%" stop-color="#f2f7ea" />
      <stop offset="100%" stop-color="#aeca7e" />
    </linearGradient>
    <radialGradient id="radialGlow" cx="0" cy="0" r="1" gradientUnits="userSpaceOnUse" gradientTransform="translate(1300 120) scale(700 700)">
      <stop stop-color="#ffffff" stop-opacity="0.55" />
      <stop offset="1" stop-color="#ffffff" stop-opacity="0" />
    </radialGradient>
    <radialGradient id="radialLeaf" cx="0" cy="0" r="1" gradientUnits="userSpaceOnUse" gradientTransform="translate(320 680) scale(520 520)">
      <stop stop-color="#d1e8a7" stop-opacity="0.45" />
      <stop offset="1" stop-color="#d1e8a7" stop-opacity="0" />
    </radialGradient>
  </defs>
  <rect width="1600" height="900" fill="url(#gradBackground)" />
  <circle cx="1330" cy="140" r="420" fill="url(#radialGlow)" />
  <circle cx="320" cy="680" r="440" fill="url(#radialLeaf)" />
  <path d="M240 520C280 450 360 420 420 460C500 520 540 610 620 660C680 700 760 710 820 670C880 640 930 550 1010 540C1090 530 1180 600 1240 660C1300 720 1380 780 1470 770C1520 760 1560 720 1600 680V900H0V620C80 600 160 590 240 520Z" fill="#94b863" fill-opacity="0.28"/>
  <path d="M0 720C120 700 200 640 280 580C360 520 440 470 520 500C600 530 680 640 760 680C840 720 920 680 1000 640C1080 600 1160 560 1240 580C1320 600 1400 700 1480 720C1520 730 1560 720 1600 700V900H0V720Z" fill="#7fa453" fill-opacity="0.18"/>
  <path d="M340 650C420 600 500 620 560 690C620 760 700 820 780 820C860 820 940 760 1020 730C1100 700 1180 700 1260 730C1340 760 1420 820 1500 840C1540 850 1570 850 1600 840V900H260V760C280 740 300 700 340 650Z" fill="#5f7f32" fill-opacity="0.12"/>
</svg>

